<?xml version="1.0" encoding="UTF-8"?>
<!DOCTYPE svg PUBLIC "-//W3C//DTD SVG 1.1//EN" "http://www.w3.org/Graphics/SVG/1.1/DTD/svg11.dtd">
<svg xmlns="http://www.w3.org/2000/svg" version="1.1" width="704px" height="370px" style="shape-rendering:geometricPrecision; text-rendering:geometricPrecision; image-rendering:optimizeQuality; fill-rule:evenodd; clip-rule:evenodd" xmlns:xlink="http://www.w3.org/1999/xlink">
<g><path style="opacity:0.945" fill="#000000" d="M 310.5,7.5 C 331.47,5.66124 350.137,11.1612 366.5,24C 393.776,21.3138 418.776,27.6471 441.5,43C 449.756,49.0452 457.923,55.2118 466,61.5C 496.834,33.5948 533.168,18.9281 575,17.5C 616.291,17.4734 648.291,34.4734 671,68.5C 682.215,90.1081 686.881,113.108 685,137.5C 678.821,184.519 659.321,224.853 626.5,258.5C 599.18,286.643 566.847,306.81 529.5,319C 515.027,323.601 500.193,326.101 485,326.5C 483.236,326.456 481.569,326.122 480,325.5C 464.792,357.013 439.959,368.513 405.5,360C 382.528,352.343 359.528,344.676 336.5,337C 314.698,331.106 292.698,326.106 270.5,322C 235.271,313.138 213.771,290.971 206,255.5C 205.147,247.169 204.314,238.836 203.5,230.5C 202.059,229.696 200.559,229.029 199,228.5C 193.634,232.2 189.3,236.867 186,242.5C 179.148,256.045 172.481,269.712 166,283.5C 144.683,313.887 115.517,325.72 78.5,319C 41.1979,308.713 21.1979,284.38 18.5,246C 19.2442,227.336 24.7442,210.17 35,194.5C 52.5135,170.653 73.3468,150.153 97.5,133C 110.931,119.301 121.764,103.801 130,86.5C 146.553,40.3266 179.553,16.9933 229,16.5C 243.461,18.0708 257.961,18.5708 272.5,18C 285.372,14.785 298.039,11.285 310.5,7.5 Z M 314.5,53.5 C 321.184,52.8487 327.517,54.0154 333.5,57C 338.523,63.0211 343.856,68.6878 349.5,74C 354.001,76.0627 358.667,77.0627 363.5,77C 367.833,74.6667 372.167,72.3333 376.5,70C 389.994,69.1232 402.328,72.4565 413.5,80C 420.617,84.7825 427.45,89.9492 434,95.5C 434.958,97.1992 435.458,99.0326 435.5,101C 435.028,104.44 433.862,107.606 432,110.5C 421.737,121.541 410.237,131.041 397.5,139C 372.833,153.667 348.167,168.333 323.5,183C 315.186,188.335 307.853,194.835 301.5,202.5C 291.597,223.631 297.597,238.131 319.5,246C 336.059,250.306 352.726,250.639 369.5,247C 381.274,244.349 392.774,240.849 404,236.5C 411.085,237.919 416.918,241.419 421.5,247C 424.303,249.1 426.97,248.934 429.5,246.5C 432.29,242.685 432.79,238.685 431,234.5C 419.667,221.833 417.334,207.5 424,191.5C 427.492,183.847 431.492,176.513 436,169.5C 452.664,144.033 471.831,120.533 493.5,99C 512.889,80.2917 535.889,68.625 562.5,64C 615.008,59.9204 640.174,84.0871 638,136.5C 631.617,174.517 614.451,206.684 586.5,233C 557.721,259.495 523.888,275.662 485,281.5C 479.722,280.815 474.555,279.648 469.5,278C 460.036,273.542 450.369,269.542 440.5,266C 431.426,264.737 427.093,268.737 427.5,278C 429.256,287.266 431.422,296.433 434,305.5C 435.202,309.793 434.035,313.293 430.5,316C 426.5,316.667 422.5,316.667 418.5,316C 390.109,306.064 361.443,296.73 332.5,288C 312.809,283.774 293.142,279.44 273.5,275C 263.963,271.128 257.463,264.294 254,254.5C 248.366,236.96 250.366,220.293 260,204.5C 266.701,194.126 274.534,184.626 283.5,176C 301.261,161.577 318.427,146.41 335,130.5C 339.333,125.5 343.667,120.5 348,115.5C 351.127,111.081 353.293,106.248 354.5,101C 354.592,98.1861 353.592,95.8527 351.5,94C 345.924,92.5284 341.091,93.6951 337,97.5C 334.227,102.604 331.06,107.437 327.5,112C 319.742,116.234 311.742,116.568 303.5,113C 284.642,103.614 265.309,102.28 245.5,109C 235.942,114.908 227.776,122.408 221,131.5C 216.348,139.362 218.515,143.862 227.5,145C 245.477,143.954 263.477,143.287 281.5,143C 282.357,143.689 283.023,144.522 283.5,145.5C 278.99,156.185 272.324,165.352 263.5,173C 255.188,179.822 246.521,186.156 237.5,192C 234.833,192.667 232.167,192.667 229.5,192C 224.367,189.265 219.367,186.265 214.5,183C 204.842,179.707 195.176,179.707 185.5,183C 170.53,189.746 158.363,199.912 149,213.5C 140.919,227.711 133.586,242.377 127,257.5C 116.213,273.818 101.38,278.651 82.5,272C 68.9388,265.379 63.4388,254.546 66,239.5C 69.6509,227.197 75.6509,216.197 84,206.5C 98.9817,190.843 115.148,176.677 132.5,164C 144.202,151.635 154.368,138.135 163,123.5C 169.907,110.018 176.574,96.3512 183,82.5C 192.068,71.7157 203.568,65.2157 217.5,63C 238.164,63.185 258.83,63.185 279.5,63C 291.736,61.5269 303.403,58.3602 314.5,53.5 Z"/></g>
<g><path style="opacity:0.945" fill="#000000" d="M 560.5,110.5 C 574.715,108.351 582.882,114.351 585,128.5C 585.037,146.058 580.037,162.058 570,176.5C 554.294,198.87 533.461,214.37 507.5,223C 485.642,227.739 472.975,219.073 469.5,197C 472.145,183.213 477.645,170.713 486,159.5C 505.705,135.24 530.538,118.906 560.5,110.5 Z"/></g>
</svg>
